<svg xmlns="http://www.w3.org/2000/svg" width="146" height="108" fill="none"><g clip-path="url(#a)"><path fill="#000" fill-rule="evenodd" d="M37.153 53.435c-.945.45-1.89.912-2.663 1.346-11.796 6.537-22.842 16.233-30.315 27.677.544-3.763.52-7.654.048-11.303-.086-.573-.601-.98-1.117-.908-.601.071-1.031.595-.945 1.167.687 5.642.343 11.902-1.719 17.235-.172.54.086 1.144.602 1.35q.21.071.412.069c.346.043.71-.087.932-.375 3.695-4.457 9.967-6.28 15.552-6.98.516-.071.945-.595.86-1.168a1.07 1.07 0 0 0-1.204-.907c-4.112.522-8.586 1.67-12.296 3.899 7.347-11.572 18.387-21.372 30.221-27.928.39-.224.85-.456 1.316-.69l.145-.074a6.1 6.1 0 0 0 1.117 3.174c.945 1.256 2.405 2.11 4.124 2.583 2.405.653 5.24.581 7.818-.017 1.976-.48 3.78-1.299 4.898-2.31.945-.816 1.46-1.768 1.546-2.771.086-1.057-.343-2.23-1.632-3.41-2.148-2.045-5.07-2.653-8.249-2.393-2.32.192-4.725.864-6.959 1.7q.387-1.046 1.031-2.265c3.437-6.106 11.685-11.86 21.394-16.628 14.778-7.241 32.994-12.15 43.132-12.198.516-.003 1.031-.473 1.031-1.05s-.515-1.045-1.031-1.042c-10.396.05-28.955 5.02-44.077 12.412-10.138 4.988-18.73 11.104-22.254 17.492-.859 1.607-1.46 3.04-1.718 4.313m1.89 1.454c-.085 1.177.172 2.124.688 2.874.687.906 1.804 1.48 3.007 1.821 2.062.567 4.554.484 6.788-.035 1.546-.372 3.007-.965 3.952-1.736.515-.435.86-.909.945-1.455 0-.558-.344-1.125-.945-1.747-1.804-1.64-4.21-2.033-6.702-1.825-2.577.217-5.413 1.095-7.733 2.103" clip-rule="evenodd"/><path fill="url(#b)" fill-rule="evenodd" d="M37.153 53.435c-.945.45-1.89.912-2.663 1.346-11.796 6.537-22.842 16.233-30.315 27.677.544-3.763.52-7.654.048-11.303-.086-.573-.601-.98-1.117-.908-.601.071-1.031.595-.945 1.167.687 5.642.343 11.902-1.719 17.235-.172.54.086 1.144.602 1.35q.21.071.412.069c.346.043.71-.087.932-.375 3.695-4.457 9.967-6.28 15.552-6.98.516-.071.945-.595.86-1.168a1.07 1.07 0 0 0-1.204-.907c-4.112.522-8.586 1.67-12.296 3.899 7.347-11.572 18.387-21.372 30.221-27.928.39-.224.85-.456 1.316-.69l.145-.074a6.1 6.1 0 0 0 1.117 3.174c.945 1.256 2.405 2.11 4.124 2.583 2.405.653 5.24.581 7.818-.017 1.976-.48 3.78-1.299 4.898-2.31.945-.816 1.46-1.768 1.546-2.771.086-1.057-.343-2.23-1.632-3.41-2.148-2.045-5.07-2.653-8.249-2.393-2.32.192-4.725.864-6.959 1.7q.387-1.046 1.031-2.265c3.437-6.106 11.685-11.86 21.394-16.628 14.778-7.241 32.994-12.15 43.132-12.198.516-.003 1.031-.473 1.031-1.05s-.515-1.045-1.031-1.042c-10.396.05-28.955 5.02-44.077 12.412-10.138 4.988-18.73 11.104-22.254 17.492-.859 1.607-1.46 3.04-1.718 4.313m1.89 1.454c-.085 1.177.172 2.124.688 2.874.687.906 1.804 1.48 3.007 1.821 2.062.567 4.554.484 6.788-.035 1.546-.372 3.007-.965 3.952-1.736.515-.435.86-.909.945-1.455 0-.558-.344-1.125-.945-1.747-1.804-1.64-4.21-2.033-6.702-1.825-2.577.217-5.413 1.095-7.733 2.103" clip-rule="evenodd"/><path fill="url(#c)" d="M54.872 9.824h51.386v42.235H54.872z"/><path fill="url(#d)" d="M41.485 9.824h64.773v54.868H41.485z"/></g><path fill="#666" d="M98.276 25.832q-.51-.204-1.054-.442a3.5 3.5 0 0 1-.986-.714q-.442-.442-.782-1.258a10.5 10.5 0 0 1-.476-1.938 17 17 0 0 1-.068-2.21q0-1.768.238-3.06.272-1.327.816-2.686.068-.101.238-.578.204-.51.442-1.088.271-.578.408-.884.272-.579.816-1.53.578-.986 1.224-1.904a52 52 0 0 1 1.632-2.312 14 14 0 0 1 1.224-1.428q.578-.578 1.292-1.088a70 70 0 0 1 1.904-1.326 2.9 2.9 0 0 1 1.632-.578 3.15 3.15 0 0 1 1.7.408q.782.408 1.156 1.224.374.714.374 1.734a8 8 0 0 1-.306 2.108 9.7 9.7 0 0 1-.85 2.074q-.544.986-1.258 1.632-.442.408-.816.306-.34-.102-.816-.544a8 8 0 0 1-.34-.68q0-.102.136-.136.204-.238.544-.816.34-.579.68-1.224a9 9 0 0 0 .476-1.088q.272-1.428.374-2.006.102-.612-.204-.918-.136-.136-.408-.102-.239.034-.816.34-.781.339-2.04 1.53a18 18 0 0 0-2.312 2.584 62 62 0 0 0-2.278 3.196 12 12 0 0 0-1.394 2.856q-.068.135-.238.51l-.136.374q.035.135-.102.68-.136.51-.306.884a17 17 0 0 0-.442 3.264q-.068 1.665.17 2.958.272 1.292.782 1.802.442.306 1.19.204.782-.102 1.768-.476a47 47 0 0 0 2.006-.816 11.5 11.5 0 0 0 1.496-.748q.68-.408 1.02-.714.272-.204.68-.408.442-.238.748-.238.476-.17.544-.136.068.033.068.306 0 .475-.544 1.054-.51.577-1.326 1.054a5 5 0 0 1-.714.578 4 4 0 0 1-.918.476q-.714.543-1.768 1.054-1.055.51-2.142.782-1.055.271-1.938.102m13.347-1.904q-.646.17-1.054-.272-.374-.442-.442-1.36t.204-2.176q.17-.408.272-.782.102-.409.102-.646.068-.34.272-.986a47 47 0 0 1 .884-2.652q.239-.579.306-.714.136 0 .238-.238a1.2 1.2 0 0 0 .102-.476q0-.273.102-.612.136-.34.272-.476 0-.17.068-.374.102-.239.102-.374 0-.136.068-.272a.45.45 0 0 0 .102-.272q.239-.443.612-1.394.408-.987.85-2.176.476-1.191.884-2.346c.408-1.155.487-1.417.646-1.938q.272-.816.272-.986 0-.273.136-.408.137-.135.408-.136a.5.5 0 0 1 .238-.136 1.6 1.6 0 0 1 .306-.034l.136.136.408.408a.84.84 0 0 1 .306.544q.068.306.068.714 0 .441-.102.782a8 8 0 0 1-.408.986l-.952 2.006q-.272.68-.578 1.292-.306.577-.306.714 0 .135-.136.408-.102.272-.238.68-.136.271-.374.816-.238.51-.51 1.122-.239.578-.408 1.02-.17.407-.17.476 0 .135-.034.272 0 .135-.136.272-.136 0-.17.204v.17q0 .34-.544 1.802a305 305 0 0 1-1.02 3.434q-.442 1.563-.442 2.516 0 .816-.034 1.088-.034.237-.306.374m5.098-1.088a1.7 1.7 0 0 1-.408-.68 2.5 2.5 0 0 1-.068-.816q.035-.408.17-.68 0-.273.068-.408.102-.171.068-.306-.034-.136.068-.476t.204-.646q.239-.545.51-1.292a57 57 0 0 0 .51-1.53q.239-.749.408-1.292.171-.545.204-.68 0-.409.544-.442.408-.135.612 0 .204.102.544.646.273.271.204.816-.067.544-.442 1.36-.136.272-.34.782-.17.51-.238.918-.136.272-.34.782-.17.476-.306.918-.067.17-.136.51-.068.306-.17.68-.101.339-.272.612-.305 1.394-.578 1.632-.237.237-.816-.408m3.298-13.804a1.6 1.6 0 0 1-.306-.476 2.6 2.6 0 0 1-.17-.612q-.034-.306.068-.306.273-.035.646-.578.375-.544.306-.952 0-.136.102-.238a.43.43 0 0 1 .238-.17q.408-.273.782-.068.409.17.748.714.306.645.17 1.088-.135.408-.748 1.156-.51.68-.952.748-.407.067-.884-.306m6.24 14.11q-.749 0-1.122-.068-.374-.069-.578-.204a5 5 0 0 1-.476-.374 6 6 0 0 0-.34-.578 3 3 0 0 0-.34-.442q-.136-.51-.136-1.326a13 13 0 0 1 .204-1.768q.204-.952.544-1.768a6 6 0 0 0 .238-.544l.102-.272q0-.171.408-.816.442-.646.952-1.36.544-.714.884-1.02.239-.273.714-.578.51-.307.884-.442a10 10 0 0 1 .748-.238q.408-.102.918-.102.476 0 .884.204t.782.714q.612.612.68 1.224.102.578-.034 1.19-.17.68-.442 1.054-.272.339-.612.306t-.782-.51q-.136-.273-.136-.442 0-.204.136-.578a1.8 1.8 0 0 0 0-.986q-.136-.51-.442-.51-.442 0-.986.408a8 8 0 0 0-1.054.952q-.238.271-.68.85-.408.543-.816 1.224-.408.645-.68 1.258a125 125 0 0 1-.612 1.802l-.204.68q0 .135.068.272a.33.33 0 0 1 .102.238q0 .408.476.646.374.238.884.272.51 0 1.258-.34.544-.273 1.02-.714.51-.443 1.054-.782.374-.239.578-.408.238-.17.238-.034t.102.136.238-.136q.204-.273.442-.34.238-.102.408-.068.204 0 .204.102a.52.52 0 0 0 .136.51q0 .135-.102.374a.85.85 0 0 1-.204.34 3.6 3.6 0 0 1-.51.544 12 12 0 0 1-.578.544l-.272.204q-.136-.034-.272.068l-.238.238a3 3 0 0 1-.51.374 1 1 0 0 1-.374.102q-.238.135-.374.17-.102.034-.102.17a1.85 1.85 0 0 1-.85.476q-.475.102-1.428.102m17.122.85q-.136.135-.748.102a3 3 0 0 1-1.088-.272.7.7 0 0 0-.238-.204 4 4 0 0 1-.34-.306 12 12 0 0 1-.238-.306 3 3 0 0 0-.34-.374 14 14 0 0 0-.544-.578l-.374-.374q-.136-.273-.544-.68a29 29 0 0 0-.782-.816 4.3 4.3 0 0 0-.476-.578 2.3 2.3 0 0 0-.408-.34q-.17-.136-.272-.136l-.136.442q-.102.408-.306 1.054-.17.612-.374 1.258l-.272.986q-.238.475-.408.646a.6.6 0 0 1-.442.17q-.374 0-.68-.34-.272-.34-.272-.986-.136-.477.34-2.074.476-1.599 1.462-4.08.136-.51.34-1.054.204-.579.34-.952.34-1.123.714-2.074.408-.987.85-1.972.442-1.02.918-2.176l.442-.884q.137-.306.306-.612.17-.34.51-.986.748-1.395 1.19-2.176.442-.783.68-1.156.238-.374.408-.544a.9.9 0 0 1 .408-.238.85.85 0 0 1 .476 0 .64.64 0 0 1 .408.238q.271.272.306.578.068.271-.136.748-.17.476-.68 1.326a8 8 0 0 1-.442.884l-.34.544a22 22 0 0 0-.544.952 2.4 2.4 0 0 1-.204.442q-.137.237-.306.238 0 .102-.102.408a4.4 4.4 0 0 1-.238.578q-.102.374-.34.816a7 7 0 0 0-.306.68 15 15 0 0 1-.544 1.122q-.34.713-.68 1.394-.306.645-.374 1.02 0 .136.204-.034a3 3 0 0 1 .442-.306q.51-.408 1.156-.816.68-.442 1.292-.748.646-.34 1.054-.408.51-.136.816-.136.34 0 .68.136.272.135.442.374.204.237.34.544.17.306.238.748 0 .306-.238 1.02t-.578 1.394q-.34.645-.68.918a2 2 0 0 0-.374.204l-.136.102q0 .136-.136.34-.102.204-.374.34a5 5 0 0 0-.306.34q-.17.204-.17.306v.17q-.136 0-.408.204-.238.203-.612.476-.374.374-.544.408a4 4 0 0 0-.408.136.4.4 0 0 1-.17.102 1 1 0 0 1-.17.068l-.136.068q-.034.033-.034.102 0 .135.306.578.34.408.782.918.476.51.884.952.442.408.646.544.34.136.476.476.17.307.204.646.034.306-.068.476m-4.08-6.018q.17-.136.714-.544.544-.442 1.19-.952.646-.544 1.156-1.02.544-.51.748-.748.238-.238.476-.816.238-.579.068-.918-.034-.136-.612.136-.577.271-1.326.646-.578.34-1.36.884-.749.543-1.428 1.156-.646.612-.986 1.19-.068.238.136.544t.544.476q.34.136.68-.034M109.734 50.5q-.17-.069-.51-.34-.34-.273-.578-.918-.238-.68-.238-1.87.034-1.02.034-1.598.034-.579-.238-.578c-.272.001-.533.181-1.054.544q-.748.51-1.734 1.394a33 33 0 0 0-2.006 1.972q-.34.374-.68.714-.306.306-.612.408-.306.068-.714-.238l-.374-.306a.7.7 0 0 1-.204-.34 1 1 0 0 1 .034-.442l.782-2.244a36 36 0 0 0 .748-1.768q.204-.579.204-.714 0-.17-.102-.136-.272.034-.816.34-.544.271-.714.544-.136 0-.408.306a3.5 3.5 0 0 1-.68.578q-.238.408-.952 1.054-.68.645-1.36 1.326-.443.374-.884.918l-.714.952q-.272.408-.374.408a1.5 1.5 0 0 1-.816-.238q-.34-.239-.51-.782-.271-.579 0-1.598.272-1.055.612-2.72.135-.51.17-.748a4 4 0 0 1 .102-.476l.306-.816.714-1.632q.239-.645.272-.952.068-.34.068-.476 0-.34.17-.578.204-.238.476-.34a.8.8 0 0 1 .51-.034q.375.068.646.374.306.306.34.85a2 2 0 0 1-.068.748q-.102.305-.204.578l-.374.918q-.17.374-.442 1.088t-.476 1.326q-.204.578-.204.68.034.101.238-.034.204-.17.51-.442.34-.306.68-.578a13 13 0 0 1 1.598-1.292q.918-.646 1.734-1.088t1.258-.578q.578 0 .782.204.238.204.782.748a.96.96 0 0 1 .272.612q.034.374-.034.714-.035.135-.204.68-.17.51-.34.986l-.136.476.374-.34q.408-.34.884-.714l.714-.612q1.326-1.02 2.312-1.292.986-.273 1.598.714.408.374.408.816.034.441.034 1.53.034.441.068 1.054.034.612.068 1.122.068.476.136.578.102.136.374.238.306.067.782.136.51.067.612.442.102.374-.442.714a1.93 1.93 0 0 1-1.122.272 4 4 0 0 1-1.088-.204m9.675.238a3 3 0 0 1-1.666.714 3.55 3.55 0 0 1-1.802-.272 3.64 3.64 0 0 1-1.462-1.224 3.85 3.85 0 0 1-.748-1.7q-.17-.987-.034-2.55.102-1.326.85-2.652.749-1.36 1.802-2.414 1.089-1.054 2.142-1.462.51-.34.85-.306.375 0 1.122.068.783.102 1.156.306.409.204.646.544.51.51.68 1.02.17.475.17.952-.135.747-1.02 1.836-.849 1.053-2.244 1.734a4.7 4.7 0 0 1-1.632.204q-.883-.034-1.462-.442-.646-.273-.85.102-.203.34-.374 1.7-.135 1.292.204 1.904.34.578.918.68.68.135 1.054.204.408.033.986-.306.545-.34.68-.374a.8.8 0 0 0 .204-.136l.442-.442a4 4 0 0 1 .374-.34.42.42 0 0 1 .306-.136q.171 0 .306.17.137.135.272.204.34 0 .136.408-.17.407-.714.986a7.5 7.5 0 0 1-1.292 1.02m-.034-7.208q.374-.17.782-.476a4 4 0 0 0 .68-.714q.306-.408.306-.68 0-.476-.442-.782-.441-.34-1.326-.102-.373.102-.85.51-.475.374-.918.85-.407.475-.68.85-.237.374-.17.442.102.17.578.272a5.3 5.3 0 0 0 1.054.034q.612-.034.986-.204m8.405 2.618q-.952.17-1.258-.918t.17-2.992q.204-.408.34-.782.136-.408.136-.646.136-.442.34-1.02.238-.612.476-1.122.238-.544.34-.714.136 0 .272-.238a.8.8 0 0 0 .17-.476q0-.273.102-.612.136-.34.272-.476 0-.17.136-.374t.136-.34.068-.238a.33.33 0 0 0 .102-.238 22 22 0 0 0 .782-1.598q.51-1.089.986-2.278.51-1.19.85-2.108t.34-1.122a.86.86 0 0 1 .204-.408q.137-.136.408-.068a.45.45 0 0 1 .272-.102q.136-.034.272-.034l.102.136q.136.135.374.408a.84.84 0 0 1 .306.544q.034.306.034.714-.034.645-.476 1.462-.442.816-.986 1.802-.34.645-.68 1.224-.306.578-.306.714 0 .135-.136.408a11 11 0 0 0-.306.68q-.204.339-.442.816l-.442.884q-.17.374-.17.476-.034.135-.102.272a.6.6 0 0 1-.17.272q-.136 0-.17.204v.17q0 .136-.17.646a7 7 0 0 1-.476 1.156q-.647 1.801-.918 2.89-.272 1.053-.34 1.802-.068.816-.136.952-.035.135-.306.272m-1.836 5.44q-.646.238-1.088.238-.408-.035-.918-.408-.646-.612-.442-1.224.239-.645 1.122-1.258.612-.375.884-.408.306-.035.918.238 1.02.645.884 1.428-.102.782-1.36 1.394"/><defs><linearGradient id="b" x1=".389" x2="106.233" y1="54.647" y2="54.647" gradientUnits="userSpaceOnUse"><stop stop-color="#FF2F2F"/><stop offset=".363" stop-color="#EF7B16"/><stop offset=".698" stop-color="#8A43E1"/><stop offset="1" stop-color="#D511FD"/></linearGradient><linearGradient id="c" x1="108.233" x2="56.424" y1="17.743" y2="35.476" gradientUnits="userSpaceOnUse"><stop offset=".174" stop-color="#F1F0EE"/><stop offset="1" stop-color="#F1F0EE" stop-opacity="0"/></linearGradient><linearGradient id="d" x1="108.748" x2="43.038" y1="20.112" y2="41.934" gradientUnits="userSpaceOnUse"><stop offset=".174" stop-color="#F1F0EE"/><stop offset="1" stop-color="#F1F0EE" stop-opacity="0"/></linearGradient><clipPath id="a"><path fill="#fff" d="M.39 1.85h105.868v105.869H.39z"/></clipPath></defs></svg>